<svg xmlns="http://www.w3.org/2000/svg" viewBox="0 0 64 64">
  <defs>
    <linearGradient id="g" x1="0" y1="0" x2="1" y2="1">
      <stop offset="0%" stop-color="#6d28d9"/>
      <stop offset="100%" stop-color="#2563eb"/>
    </linearGradient>
  </defs>
  <rect width="64" height="64" rx="14" fill="#0b1020"/>
  <g transform="translate(8,8)">
    <path d="M18 36l6-16 6 16h-4l-2-6h-4l-2 6h-4zm8-20a10 10 0 1 0 0-0.01z" fill="none"/>
    <path d="M16 36l8-22 8 22h-4l-1.6-4.8h-4.8L20 36h-4zm8-26c-5.5 0-10 4.5-10 10h4c0-3.3 2.7-6 6-6s6 2.7 6 6h4c0-5.5-4.5-10-10-10z" fill="url(#g)"/>
    <circle cx="38" cy="6" r="3" fill="#a78bfa"/>
  </g>
</svg>
